<?xml version="1.0" standalone="no"?>
<svg version="1.1" id="Layer_1" xmlns="http://www.w3.org/2000/svg" xmlns:xlink="http://www.w3.org/1999/xlink" x="0px" y="0px" width="595.276px" height="595.276px" viewBox="0 0 595.276 595.276" enable-background="new 0 0 595.276 595.276" xml:space="preserve">
<path id="color_x5F_7" fill-rule="evenodd" clip-rule="evenodd" fill="#9013fe" d="M189.178,349.574h7.842v159.683h-7.842
	V349.574z M194.148,335.733l-76-0.139l0.129,13.077l4.96,0.058v41.835h8.911v-41.73l62,0.73V335.733z M404.724,312.911h-9.012
	c-4.677,0-8.504,3.827-8.504,8.504v2.24c0,4.677,3.827,8.504,8.504,8.504h0.585V321.99h8.317v10.168h0.11
	c4.677,0,8.504-3.827,8.504-8.504v-2.24C413.228,316.737,409.401,312.911,404.724,312.911z M360.445,443.595
	c0,2.907,2.379,5.286,5.286,5.286h35.815c2.907,0,5.286-2.379,5.286-5.286v-2.912h-46.388L360.445,443.595L360.445,443.595z
	 M418.723,440.446v66.174c0.872,0.501,1.535,1.309,1.847,2.281h5.995V439.82c-0.983,0.4-2.055,0.625-3.177,0.625h-4.665
	L418.723,440.446L418.723,440.446z M423.387,352.099h-4.378c2.68,29.592,4.525,55.93,4.525,55.93c-1.606,0.886-3.21,1.67-4.812,2.36
	v10.57h4.664c1.123,0,2.194,0.225,3.177,0.625v-70.111C425.581,351.874,424.51,352.099,423.387,352.099z"></path>
<path id="color_x5F_6" fill="#9b9b9b" d="M503.673,425.02l-48.713,0.475c0,0-13.545-17.347-5.465-36.832
	c0,0,12.832,3.564,18.297,14.97c0,0,3.089-14.02,13.545-21.861c0,0,8.317,9.98,10.455,22.337c0,0,6.891-12.356,17.822-13.545
	C509.614,390.564,517.693,409.337,503.673,425.02z M312.096,144.93h-46.548c-4.38,0-7.964,3.584-7.964,7.964v29.608
	c0,4.38,3.584,7.964,7.964,7.964h6.056v10.95l9.207-10.95h31.285c4.38,0,7.964-3.584,7.964-7.964v-29.608
	C320.06,148.514,316.476,144.93,312.096,144.93z M263.73,251.525h-78.605c-4.235,0-7.699,1.728-7.699,6.284l14.423,62.359h58.586
	c0.024-0.031,0.041-0.057,0.065-0.088c4.933-6.378,15.93-3.362,15.93-3.362s11.024,0.522,21.601,1.029l-12.884-57.938
	C274.178,253.955,267.965,251.525,263.73,251.525z M396.297,420.96h-51.902c-4.677,0-8.504,3.827-8.504,8.504v2.477
	c0,4.677,3.827,8.504,8.504,8.504h51.902V420.96z M423.387,292.969h-60.339c-4.677,0-8.504,3.827-8.504,8.504v42.122
	c0,4.677,3.827,8.504,8.504,8.504h33.249v-19.941h-0.585c-4.677,0-8.504-3.827-8.504-8.504v-2.24c0-4.677,3.827-8.504,8.504-8.504
	h9.012c4.677,0,8.504,3.827,8.504,8.504v2.24c0,4.677-3.827,8.504-8.504,8.504h-0.11v19.941h18.773c4.677,0,8.504-3.827,8.504-8.504
	v-42.122C431.891,296.796,428.064,292.969,423.387,292.969z M423.387,420.96h-18.773v19.485h18.773c4.677,0,8.504-3.827,8.504-8.504
	v-2.477C431.891,424.787,428.064,420.96,423.387,420.96z M416.726,506.069h-66.174c-2.23,0-4.054,1.824-4.054,4.054v2.233h74.282
	v-2.233C420.78,507.894,418.955,506.069,416.726,506.069z"></path>
<path id="color_x5F_5" fill-rule="evenodd" clip-rule="evenodd" fill="#FFD2BB" d="M311.097,338.246
	c-11.663,0.076-44.529-10.758-44.529-10.758l-17.432-0.779c0,0-3.569-0.251,1.364-6.63c4.933-6.378,15.93-3.362,15.93-3.362
	s38.879,1.841,40.664,1.966c1.785,0.126,9.809-5.587,9.809-5.587l9.803,19.971C326.706,333.068,322.76,338.171,311.097,338.246z
	 M384.707,249.105c0,0-7.036-0.034-6.767-0.079c0,0-6.131-2.044-8.518-18.735c0,0,10.086,2.973,10.086-8.258
	s-8.695-9.579-11.477-4.955c0,0-3.13,8.588-6.608,3.964c-2.361-3.14,3.745-13.223-1.739-21.469
	c-4.174-6.276-14.608,0.33-14.608,0.33s-6.646,35.158,8.681,45.717c0,0,4.016,3.111,12.248,3.908
	c0.048,0.571,0.141,1.999,0.262,5.353c0,0,17.217-2.139,18.891-2.139L384.707,249.105z M335.735,456.85
	c1.707,11.535,7.18,48.941,6.275,48.338c-0.661-0.441-7.994,1.98-14.594,5.07l-1.802-4.852c0,0,2.969-23.765,3.511-48.743
	c-7.005,2.09-16.744,1.941-22.708,1.579c1.594,10.758,7.286,49.56,6.365,48.946c-1.069-0.713-19.604,6.059-24.238,11.049
	l41.703-0.356l-0.648-1.745l18.723-0.16c-0.116-0.457-0.184-0.934-0.184-1.427c0-0.777,0.155-1.516,0.432-2.193h-2.072v-2.233
	c0-2.23,1.824-4.054,4.054-4.054h5.279l-0.989-2.663c0,0,2.803-22.427,3.459-46.607C349.247,458.447,340.789,457.768,335.735,456.85
	z"></path>
<path id="color_x5F_4" fill-rule="evenodd" clip-rule="evenodd" fill="#000000" d="M132.505,348.861h7.129v41.703h-7.129
	V348.861z M453.059,425.97L459.95,483l41.584,0.238l6.178-57.03L453.059,425.97z M387.381,505.713v-56.475h-7.485v56.475H387.381z
	 M403.507,232.273c9.544-16.617,7.304-42.278-4.521-51.857c-9.57-7.752-27.516-13.136-47.272-1.555
	c-2.811,1.648-14.306-3.065-17.03,3.065c-0.64,1.439,7.352,7.322,6.593,8.354c-8.468,11.533,2.177,16.449,2.177,16.449l0.63,0.771
	c0.422-4.552,0.994-7.597,0.994-7.597s10.434-6.606,14.608-0.33c5.484,8.247-0.622,18.33,1.739,21.469
	c3.478,4.624,6.608-3.964,6.608-3.964c2.782-4.624,11.477-6.276,11.477,4.955s-10.086,8.258-10.086,8.258
	c3.677,17.224,8.859,19.076,8.859,19.076C386.796,249.367,395.159,246.806,403.507,232.273z M358.301,456.799
	c-0.396,14.593-1.574,28.538-2.445,37.31h5.342v-37.917C360.228,456.422,359.261,456.625,358.301,456.799L358.301,456.799z
	 M396.297,440.228h8.317V321.99h-8.317V440.228z M328.485,339.238c-2.362-0.764-4.373-1.866-6.112-3.169
	c-2.466,1.125-6.112,2.145-11.276,2.178c-3.687,0.024-9.495-1.044-15.713-2.514H194.148v13.832h3.228v159.337h10.693V349.564
	h136.216c0.46-4.959,0.761-9.801,0.957-13.832h-11.314C330.893,337.797,328.485,339.238,328.485,339.238z M431.891,343.595
	c0,3.555-2.213,6.613-5.327,7.879v70.111c3.114,1.266,5.327,4.324,5.327,7.879v2.477c0,3.555-2.213,6.613-5.327,7.879v69.437h10.693
	V349.564h6.396v-13.832h-11.762V343.595z M348.57,512.356c-0.277,0.677-0.432,1.417-0.432,2.193c0,3.207,2.6,5.807,5.807,5.807
	s5.807-2.6,5.807-5.807c0-0.777-0.155-1.516-0.432-2.193H348.57z M378.216,512.356c-0.277,0.677-0.432,1.417-0.432,2.193
	c0,3.207,2.6,5.807,5.807,5.807s5.807-2.6,5.807-5.807c0-0.777-0.155-1.516-0.432-2.193H378.216z M407.862,512.356
	c-0.277,0.677-0.432,1.417-0.432,2.193c0,3.207,2.6,5.807,5.807,5.807s5.807-2.6,5.807-5.807c0-0.777-0.155-1.516-0.432-2.193
	H407.862z"></path>
<path id="color_x5F_3" fill-rule="evenodd" clip-rule="evenodd" fill="#9013fe" d="M285.938,98.209v19.116
	c0,4.677-3.827,8.504-8.504,8.504h-33.099c-4.677,0-8.504-3.827-8.504-8.504V98.209c0-4.677,3.827-8.504,8.504-8.504h33.099
	C282.112,89.705,285.938,93.532,285.938,98.209z M210.535,221.297c15.2-4.307,24.898-11.795,29.228-17.109
	c5.228-6.416,5.465-13.307,2.139-13.782c0,0-8.748-1.495-19.148,2.554c-0.099,0.038,7.327,10.609-3.99,14.218
	c-5.614,1.79-10.217-5.556-10.263-5.654c-4.332,3.91-8.663,9.097-12.697,15.971C195.802,217.495,196.277,225.337,210.535,221.297z
	 M208.495,201.515c0,0,0.004,0.008,0.004,0.009c0.013-0.012,0.027-0.024,0.04-0.036L208.495,201.515z M110.121,400.217
	c0.034-3.935-0.063-7.8,0-9.233h-31.83v8.863h3.807v109.232c0,0,30.051,0.291,30.09,0.169l-0.201-109.042L110.121,400.217z
	 M131.46,230.622l63.866-44.73l-2.852-5.228l-64.528,46.152C129.511,227.595,130.779,228.93,131.46,230.622z M126.312,240.482
	c-1.211,0.275-2.419,0.23-3.539-0.076l20.751,84.733l6.337,0.218l-21.597-85.628C127.667,240.063,127.014,240.322,126.312,240.482z
	 M404.614,414.203v6.757h0.023c7.461-2.946,9.375-5.711,10.256-9.096C411.438,413.044,408.004,413.803,404.614,414.203z
	 M337.364,380.349c-8.169,0.935-32.191,4.069-39.839,9.364c-9.267,6.416-9.98,16.753-4.99,29.941
	c5.322,14.065,8.554,38.139,8.554,38.139s20.111,2.433,30.467-1.993c3.036,1.199,16.492,3.726,30.444,0.201
	c0.083-1.89,0.16-4.948,0.229-8.481c-1.085-0.97-1.784-2.363-1.784-3.924v-2.912l-16.05-0.238c-4.677,0-8.504-3.827-8.504-8.504
	v-2.477c0-4.677,3.827-8.504,8.504-8.504h51.902v-6.465C367.115,413.164,342.631,387.811,337.364,380.349z M249.136,326.71
	c0,0-0.392-0.033-0.737-0.304h-62.082c0.832,9.858,9.464,8.755,9.464,8.755h65.071c-0.71-4.767-2.075-7.014-3.158-8.069
	L249.136,326.71z"></path>
<path id="color_x5F_2" fill="#4a4a4a" d="M129.861,335.475c0,0,0.356-9.624,7.485-9.98h20.317c0,0,9.267,0.713,11.406,9.98
	H129.861z M126.312,240.482c3.935-0.894,6.4-4.809,5.506-8.745c-0.894-3.935-4.809-6.4-8.745-5.506
	c-3.935,0.894-6.4,4.809-5.506,8.745C118.462,238.911,122.377,241.376,126.312,240.482z M312.096,144.93
	c3.805,0,7.005,2.705,7.781,6.287h43.454c4.677,0,8.504-3.827,8.504-8.504V118.33c0-4.677-3.827-8.504-8.504-8.504h-59.098
	c-4.677,0-8.504,3.827-8.504,8.504v24.383c0,0.768,0.112,1.509,0.305,2.217H312.096z M196.75,188.035
	c-0.063,0.112-6.148,11.021-0.948,29.46c0,0,14.733-30.416,46.099-27.089c0,0-9.67-9.92-26.995-12.927l-6.748-9.409
	c-2.376-4.752-8.554-8.554-15.208-4.277s-1.901,14.257-1.901,14.257L196.75,188.035z M110.885,399.847h1.109l0.194,109.319
	c27.109,0.074,62.741,0.157,62.817,0.082l-0.601-109.401h3.725v-8.863h-67.244L110.885,399.847z M354.545,343.595v-42.122
	c0-4.677,3.827-8.504,8.504-8.504h49.431c-1.605-10.895-3.24-18.835-4.794-21.296c-7.088-11.223-14.935-10.525-14.935-10.525
	s-2.395-7.677-4.739-8.347c-2.344-0.67-20.079,1.782-20.079,1.782s-5.173,0.826-6.178,3.505c-1.005,2.679-3.832,11.432-3.832,11.432
	s-8.473,0.989-14.643,12.44c-3.811,7.073-25.723,27.812-31.426,31.614c0,0,0.475,20.436,16.634,25.663c0,0,2.271-1.358,5.181-3.327
	h11.568c-0.72,14.675-2.829,39.884-8.857,42.396c-1.561,0.651,26.008,34.638,59.921,36.189v-62.397h-33.249
	C358.371,352.099,354.545,348.272,354.545,343.595z M419.01,352.099h-14.396v62.107c6.207-0.733,12.557-2.666,18.921-6.176
	C423.535,408.03,421.69,381.691,419.01,352.099z M191.849,320.168l-14.423-62.359c0-4.556,3.465-6.284,7.699-6.284h78.605
	c4.235,0,10.448,2.431,11.416,8.284l12.884,57.938c2.227,0.107,4.434,0.213,6.514,0.313l-14.129-62.069
	c-1.069-6.465-6.827-9.15-11.504-9.15H178.78c-4.677,0-8.504,4.117-8.504,9.15l15.929,69.979h61.844
	c-0.39-0.789-0.211-2.421,2.384-5.802L191.849,320.168L191.849,320.168z M257.703,327.093c1.142,1.11,2.594,3.535,3.262,8.818
	h35.184c-13.623-3.164-29.581-8.422-29.581-8.422L257.703,327.093z"></path>
<path id="color_x5F_1" fill="#1d1c27" d="M247.978,108.24v0.042c0,1.978,1.368,3.556,3.325,3.556
	c1.199,0,2.083-0.547,2.882-1.368l1.536,1.515c-1.094,1.22-2.377,2.083-4.545,2.083c-3.304,0-5.745-2.588-5.745-5.744v-0.042
	c0-3.156,2.441-5.808,5.787-5.808c2.083,0,3.388,0.779,4.44,1.915l-1.599,1.705c-0.779-0.821-1.599-1.389-2.862-1.389
	C249.346,104.705,247.978,106.304,247.978,108.24z M261.927,112.006c-1.136,0-2.419-0.463-3.64-1.368l-1.136,1.726
	c1.389,1.094,3.135,1.662,4.713,1.662c2.314,0,4.124-1.157,4.124-3.493v-0.042c0-1.999-1.831-2.735-3.451-3.24
	c-1.305-0.421-2.504-0.758-2.504-1.578v-0.042c0-0.631,0.568-1.094,1.557-1.094c0.926,0,2.062,0.399,3.135,1.052l1.01-1.81
	c-1.178-0.778-2.693-1.262-4.082-1.262c-2.209,0-3.956,1.283-3.956,3.388v0.042c0,2.125,1.831,2.798,3.472,3.261
	c1.305,0.4,2.483,0.695,2.483,1.557v0.042C263.652,111.543,263.021,112.006,261.927,112.006z M272.257,112.006
	c-1.136,0-2.419-0.463-3.64-1.368l-1.136,1.726c1.389,1.094,3.135,1.662,4.713,1.662c2.314,0,4.124-1.157,4.124-3.493v-0.042
	c0-1.999-1.831-2.735-3.451-3.24c-1.305-0.421-2.504-0.758-2.504-1.578v-0.042c0-0.631,0.568-1.094,1.557-1.094
	c0.926,0,2.062,0.399,3.135,1.052l1.01-1.81c-1.178-0.778-2.693-1.262-4.082-1.262c-2.209,0-3.956,1.283-3.956,3.388v0.042
	c0,2.125,1.831,2.798,3.472,3.261c1.305,0.4,2.483,0.695,2.483,1.557v0.042C273.982,111.543,273.351,112.006,272.257,112.006z
	 M244.335,126.829h3.625c0,0,0.861-0.176,0.847-1.073c-0.016-0.974-0.876-0.927-0.876-0.927h-3.596
	c-4.138,0-7.504-3.366-7.504-7.504V98.209c0-4.138,3.366-7.504,7.504-7.504h33.1c4.138,0,7.504,3.366,7.504,7.504v19.116
	c0,4.138-3.366,7.504-7.504,7.504h-20.89c0,0-0.839,0.219-0.809,0.982c0.037,0.962,0.869,1.018,0.869,1.018h20.831
	c5.24,0,9.504-4.264,9.504-9.504V98.209c0-5.24-4.264-9.504-9.504-9.504h-33.1c-5.24,0-9.504,4.264-9.504,9.504v19.116
	C234.831,122.565,239.095,126.829,244.335,126.829z M318.941,137.435v-13.554h-2.382v5.635h-6.468v-5.635h-2.381v13.554h2.381
	v-5.712h6.468v5.712L318.941,137.435L318.941,137.435z M328.164,137.435v-11.347h4.298v-2.207h-10.998v2.207h4.299v11.347H328.164z
	 M337.327,127.753l4.24,6.351h0.077l4.279-6.39v9.72h2.382V123.88h-2.536l-4.125,6.409l-4.124-6.409h-2.536v13.554h2.343
	L337.327,127.753L337.327,127.753z M351.798,123.881v13.554h9.507v-2.169h-7.126v-11.385
	C354.179,123.881,351.798,123.881,351.798,123.881z M337.455,110.826h4.515c0,0,0.991-0.182,0.986-1.018
	c-0.006-0.917-1.045-0.982-1.045-0.982h-4.426c0,0-0.888,0.062-0.874,0.955C336.624,110.584,337.455,110.826,337.455,110.826z
	 M291.25,160.749l-7.041,13.223c-0.259,0.488-0.075,1.093,0.413,1.353c0.15,0.08,0.311,0.117,0.469,0.117
	c0.358,0,0.704-0.192,0.884-0.53l7.041-13.223c0.259-0.488,0.075-1.093-0.413-1.353C292.114,160.076,291.509,160.263,291.25,160.749
	z M297.214,174.776c0.195,0.195,0.451,0.293,0.707,0.293s0.512-0.098,0.707-0.293l6.394-6.395c0.19-0.19,0.296-0.45,0.293-0.72
	c-0.004-0.27-0.115-0.526-0.311-0.712l-6.394-6.083c-0.4-0.38-1.033-0.365-1.414,0.035c-0.38,0.4-0.365,1.033,0.035,1.414
	l5.652,5.376l-5.669,5.669C296.824,173.753,296.824,174.386,297.214,174.776z M280.875,160.885c-0.391-0.391-1.023-0.391-1.414,0
	l-6.394,6.395c-0.191,0.19-0.296,0.45-0.293,0.72s0.115,0.526,0.311,0.712l6.394,6.083c0.194,0.184,0.442,0.275,0.689,0.275
	c0.264,0,0.528-0.104,0.725-0.311c0.38-0.4,0.365-1.033-0.035-1.414l-5.651-5.376l5.669-5.669
	C281.265,161.909,281.265,161.276,280.875,160.885z M265.548,143.93c-4.943,0-8.964,4.021-8.964,8.964v29.608
	c0,4.943,4.021,8.964,8.964,8.964h5.056v9.951c0,0.42,0.263,0.795,0.658,0.939c0.112,0.041,0.228,0.061,0.342,0.061
	c0.29,0,0.572-0.126,0.766-0.356l8.908-10.594h13.139c0,0,0.98-0.119,0.961-1.042c-0.02-0.948-0.961-0.958-0.961-0.958h-13.605
	c-0.295,0-0.575,0.13-0.766,0.356l-7.442,8.851v-8.208c0-0.552-0.448-1-1-1h-6.056c-3.84,0-6.964-3.124-6.964-6.964v-29.608
	c0-3.84,3.124-6.964,6.964-6.964h46.548c3.84,0,6.964,3.124,6.964,6.964v29.608c0,3.84-3.124,6.964-6.964,6.964h-8.828
	c0,0-1.009,0.16-0.957,0.982c0.066,1.048,1.017,1.018,1.017,1.018h8.769c4.942,0,8.964-4.021,8.964-8.964v-29.608
	c0-0.229-0.017-0.453-0.034-0.677h42.307c5.24,0,9.504-4.264,9.504-9.504V118.33c0-5.24-4.264-9.504-9.504-9.504h-13.431
	c0,0-0.861,0.065-0.84,0.963c0.024,1.008,0.899,1.037,0.899,1.037h13.372c4.138,0,7.504,3.366,7.504,7.504v24.383
	c0,4.138-3.366,7.504-7.504,7.504h-42.681c-1.141-3.639-4.545-6.287-8.555-6.287h-15.241c-0.072-0.397-0.125-0.8-0.125-1.217V118.33
	c0-4.138,3.366-7.504,7.504-7.504h24.905c0,0,1.307-0.093,1.323-1.012c0.018-1.044-1.323-0.988-1.323-0.988h-24.905
	c-5.24,0-9.504,4.264-9.504,9.504v24.383c0,0.416,0.046,0.818,0.105,1.217H265.548z M355.769,399.661
	c0.344,0.255,1.201,0.379,1.558-0.037c0.429-0.501,0.121-1.242-0.17-1.456c-1.479-1.088-2.899-2.187-4.243-3.283
	c-0.297-0.243-1.083-0.436-1.443,0.223c-0.292,0.535-0.104,1.106,0.213,1.366C352.991,397.547,354.356,398.614,355.769,399.661z
	 M550.539,482.237c-2.013-0.05-4.027-0.089-6.041-0.117c-0.005,0-0.009,0-0.014,0c-0.546,0-0.992,0.438-1,0.986
	c-0.008,0.552,0.434,1.006,0.986,1.014c2.006,0.028,4.013,0.067,6.02,0.117c0.008,0,0.017,0,0.024,0c0.541,0,0.986-0.432,1-0.976
	C551.528,482.71,551.092,482.251,550.539,482.237z M538.904,482.067c-0.002,0-0.003,0-0.005,0c-3.847,0.02-7.745,0.077-11.589,0.17
	c-0.552,0.014-0.988,0.473-0.976,1.024c0.014,0.544,0.459,0.976,1,0.976c0.008,0,0.016,0,0.024,0c3.831-0.094,7.717-0.15,11.55-0.17
	c0.553-0.003,0.998-0.453,0.995-1.005C539.901,482.512,539.454,482.067,538.904,482.067z M519.537,483.239
	c-0.001,0.552-0.448,0.998-1,0.998c-0.001,0-0.001,0-0.002,0c-26.464-0.04-53.005-0.071-79.585-0.096v25.096c0,0.553-0.447,1-1,1
	h-16.171v2.119c0,0.553-0.447,1-1,1h-0.847c0.071,0.388,0.112,0.785,0.112,1.193c0,3.753-3.054,6.807-6.807,6.807
	s-6.807-3.054-6.807-6.807c0-0.408,0.038-0.806,0.109-1.193h-16.253c0.07,0.388,0.111,0.786,0.111,1.193
	c0,3.753-3.054,6.807-6.807,6.807c-3.754,0-6.808-3.054-6.808-6.807c0-0.408,0.041-0.806,0.111-1.193h-16.254
	c0.07,0.388,0.112,0.786,0.112,1.193c0,3.753-3.054,6.807-6.808,6.807c-3.26,0-5.99-2.306-6.651-5.371l-16.632,0.142l0.522,1.405
	c0.114,0.306,0.071,0.647-0.113,0.915c-0.186,0.269-0.489,0.431-0.815,0.433l-41.702,0.356c-0.003,0-0.006,0.001-0.009,0.001
	c-0.396,0-0.755-0.234-0.915-0.597c-0.161-0.365-0.09-0.792,0.182-1.084c3.801-4.095,19.024-10.669,24.066-11.306
	c-0.116-2.631-1.276-11.608-2.747-22.186c-32.936-0.005-66.806,0.002-99.725,0.017v25.155c0,0.264-0.104,0.516-0.289,0.703
	c-0.259,0.262-0.343,0.347-6.337,0.347c-2.913,0-7.222-0.02-13.626-0.05c-0.55-0.003-0.995-0.449-0.995-1V484.09
	c-4.098,0.002-8.199,0.003-12.296,0.005l0.143,25.144c0.001,0.268-0.104,0.524-0.293,0.713c-0.273,0.273-0.324,0.324-8.414,0.324
	c-1.84,0-4.095-0.003-6.862-0.006c-8.716-0.011-20.326-0.035-31.932-0.064c-23.212-0.058-46.408-0.13-46.408-0.13
	c-0.551-0.002-0.997-0.449-0.997-1v-24.892c-12.65,0.016-25.293,0.032-37.918,0.051h-0.001c-0.552,0-0.999-0.446-1-0.998
	c-0.001-0.553,0.446-1.001,0.999-1.002c12.626-0.019,25.271-0.036,37.921-0.051V454.01c0,0,0.102-1.181,0.927-1.158
	c1.114,0.03,1.073,1.158,1.073,1.158v54.071c8.063,0.025,17.869,0.054,28.034,0.082V400.847h-1.106h-0.141H83.098v43.517
	c0,0-0.024,1.123-1.037,1.123c-0.916,0-0.963-1.123-0.963-1.123v-43.517h-2.807c-0.552,0-1-0.447-1-1v-8.862c0-0.553,0.448-1,1-1
	h31.594h0.375h11.889v-40.214c0-0.019,0.01-0.035,0.011-0.054l-3.894-0.046c-0.544-0.007-0.983-0.446-0.988-0.99l-0.129-13.077
	c-0.002-0.268,0.102-0.524,0.29-0.714s0.443-0.296,0.71-0.296c0,0,0.001,0,0.002,0l10.771,0.02
	c0.375-3.779,2.463-9.822,8.375-10.117c0.017-0.001,0.033-0.001,0.05-0.001h4.991l-20.405-83.322
	c-0.575-0.204-1.136-0.454-1.665-0.787c-1.877-1.183-3.183-3.025-3.674-5.189s-0.112-4.389,1.071-6.267
	c1.182-1.877,3.025-3.182,5.188-3.674c1.688-0.384,3.41-0.229,4.978,0.414l63.377-45.329l-1.026-1.796
	c-1.81-3.793-3.62-11.834,2.229-15.595c2.968-1.908,6.134-2.48,9.155-1.65c3.12,0.856,5.902,3.193,7.457,6.259l5.981,8.742
	c16.375,1.702,25.842,11.434,27.432,13.198c1.03,0.275,1.828,1.026,2.269,2.155c1.252,3.205-0.461,8.619-4.166,13.166
	c-2.241,2.75-11.007,12.134-29.73,17.439c-2.817,0.798-5.297,1.197-7.426,1.197c-2.465,0-4.46-0.535-5.967-1.604
	c-2.167-1.538-2.539-3.658-2.598-4.173c-4.673-16.66-0.366-27.217,0.8-29.624l-0.468-0.818l-62.496,43.771
	c0.049,0.168,0.102,0.335,0.142,0.508c0.492,2.164,0.112,4.389-1.071,6.267c-0.609,0.968-1.396,1.779-2.31,2.41l21.263,84.302h6.988
	c0.173,0.011,9.713,0.859,12.233,10.193l19.554,0.036c-0.113-0.082-0.228-0.152-0.34-0.242c-2.129-1.715-3.379-4.399-3.74-7.966
	c-0.063-0.097-0.112-0.205-0.139-0.324l-15.929-69.979c-0.017-0.073-0.025-0.147-0.025-0.222c0-5.596,4.264-10.149,9.504-10.149
	h90.131c5.22,0,11.355,3.125,12.491,9.986l13.948,61.27c6.243,0.302,11.194,0.546,11.813,0.59c0.516-0.006,2.028-0.793,3.876-1.914
	c-0.16-1.32-0.187-2.135-0.188-2.176c-0.008-0.343,0.16-0.665,0.445-0.855c5.651-3.768,27.473-24.523,31.1-31.256
	c5.681-10.54,13.239-12.558,15.026-12.896l3.015-10.188c0.031-0.114,0.804-2.691,4.737-4.126l-0.171-3.846
	c-7.756-0.928-11.635-3.844-11.864-4.023c-11.198-7.713-11.137-27.578-10.1-38.768c-0.002-0.001-0.005-0.001-0.007-0.002
	c-0.186-0.085-4.551-2.147-5.738-6.754c-0.847-3.281,0.14-6.933,2.932-10.859c-0.421-0.632-1.767-1.945-2.693-2.85
	c-2.878-2.807-4.352-4.333-3.765-5.655c2.055-4.619,8.127-3.992,12.557-3.534c1.954,0.202,4.167,0.43,4.882,0.012
	c19.841-11.631,38.013-6.778,48.407,1.641c12.149,9.841,14.507,36.159,4.759,53.132c-6.022,10.484-12.514,14.836-18.658,16.555
	l0.306,2.245c3.176,0.057,4.095,1.275,4.806,2.636l0.05,0.096c1.015,1.93,1.567,3.197,2.055,4.315
	c0.235,0.538,0.461,1.037,0.701,1.543c2.429,0.171,8.947,1.557,14.897,10.978c1.564,2.476,3.202,10.218,4.809,20.831h1.422h8.625
	c5.24,0,9.504,4.264,9.504,9.504v7.645c0,0-0.043,1.324-0.981,1.324c-0.934,0-1.019-1.324-1.019-1.324v-7.645
	c0-4.138-3.366-7.504-7.504-7.504h-8.846h-39.135c-4.138,0-7.504,3.366-7.504,7.504v42.122c0,4.138,3.366,7.504,7.504,7.504h19.892
	v-17.962c-5.047-0.22-9.089-4.383-9.089-9.483v-2.239c0-5.241,4.264-9.505,9.504-9.505h9.012c5.24,0,9.504,4.264,9.504,9.505v2.239
	c0,4.938-3.791,8.99-8.613,9.443V351.1h6.872h10.9c4.138,0,7.504-3.366,7.504-7.504v-24.942c0,0,0.085-1.002,0.984-1.002
	c0.749,0,1.016,1.002,1.016,1.002v16.079h10.763c0.553,0,1,0.447,1,1v13.832c0,0.553-0.447,1-1,1h-4.703v131.577
	c6.643,0.006,13.274,0.014,19.911,0.021l-6.781-56.182c-0.034-0.284,0.055-0.569,0.245-0.783c0.189-0.215,0.462-0.337,0.748-0.337
	h0.913c-13.901-18.391-5.564-36.248-5.475-36.433c0.21-0.435,0.701-0.66,1.17-0.527c10.954,3.067,16.002,9.705,18.105,13.615
	c1.888-6.898,5.71-14.241,12.987-20.594c0.203-0.178,0.469-0.267,0.736-0.244c0.269,0.021,0.517,0.15,0.689,0.356
	c0.108,0.13,6.978,8.546,10.033,21.07c2.119-3.759,6.937-9.752,17.008-12.572c0.47-0.132,0.96,0.093,1.17,0.527
	c0.084,0.176,8.046,17.26-5.337,34.802h2.807c0.284,0,0.556,0.121,0.745,0.333s0.28,0.494,0.249,0.776l-6.209,56.246
	c5.289,0.007,10.589,0.013,15.872,0.021C519.091,482.238,519.538,482.687,519.537,483.239z M242.841,192.382
	c-0.332-0.849-0.855-0.952-1.057-0.982c-6.595-0.7-12.445,0.148-17.567,1.904c2.333,3.447,2.841,7.122,1.333,10.228
	c-1.498,3.087-4.819,5.162-8.263,5.162c-4.904,0-7.852-3.682-9.062-5.614c-6.914,6.388-10.669,13.207-11.387,14.586
	c0.099,0.494,0.462,1.674,1.774,2.586c1.58,1.097,4.883,2.001,11.65,0.085c18.16-5.146,26.578-14.144,28.725-16.779
	C242.596,199.127,243.666,194.494,242.841,192.382z M209.75,201.725c0.869,1.46,3.386,4.968,7.537,4.968
	c2.695,0,5.293-1.622,6.464-4.035c1.257-2.591,0.721-5.638-1.465-8.632C217.395,195.987,213.222,198.758,209.75,201.725z
	 M191.952,177.619l4.847,8.478c1.627-2.403,3.381-4.226,5.131-5.617c0.349-0.277,1.089-0.48,1.442,0.087
	c0.431,0.692,0.053,1.277-0.252,1.52c-1.886,1.512-3.787,3.588-5.503,6.444c-0.125,0.228-5.348,9.987-1.475,26.303
	c4.074-6.805,18.201-26.795,43.142-25.631c-3.71-3.386-12.89-10.296-26.584-11.08c-0.738,0.059-1.691,0.191-2.805,0.488
	c-0.281,0.075-0.818-0.274-0.982-0.893c-0.13-0.489,0.245-0.976,0.519-1.048c0.996-0.262,1.882-0.409,2.63-0.491
	c0.119-0.049,0.247-0.073,0.381-0.071l-5.113-7.473c-0.026-0.037-0.049-0.077-0.069-0.117c-1.298-2.597-3.626-4.573-6.228-5.287
	c-0.719-0.198-1.452-0.296-2.19-0.296c-1.784,0-3.602,0.573-5.354,1.7C187.646,168.391,191.908,177.527,191.952,177.619z
	 M194.021,185.585l-1.882-3.451l-62.397,44.628c0.856,0.653,1.565,1.457,2.103,2.37L194.021,185.585z M121.333,238.693
	c1.425,0.898,3.117,1.187,4.758,0.813c1.643-0.373,3.042-1.364,3.939-2.79c0.897-1.425,1.187-3.115,0.813-4.758
	c-0.374-1.643-1.364-3.042-2.79-3.939c-1.019-0.642-2.172-0.972-3.348-0.972c-0.469,0-0.941,0.053-1.41,0.159
	c-1.643,0.373-3.042,1.364-3.939,2.79c-0.897,1.425-1.187,3.115-0.813,4.758C118.917,236.397,119.907,237.796,121.333,238.693z
	 M124.102,241.626l20.214,82.539l4.25,0.146l-20.979-83.177c-0.342,0.127-0.691,0.24-1.053,0.322
	c-0.617,0.14-1.24,0.209-1.857,0.209C124.484,241.666,124.294,241.639,124.102,241.626z M130.965,334.476h36.787
	c-2.415-7.267-9.836-7.957-10.167-7.983l-20.212,0.003C132.546,326.754,131.284,332.16,130.965,334.476z M79.291,398.847h29.594
	v-6.862H79.291V398.847z M432.891,336.732v6.863c0,1.823-0.525,3.521-1.418,4.969h11.181v-11.832H432.891z M423.387,353.1h-3.189
	c2.562,28.039,4.351,52.944,4.513,55.215c0.029,0.4-0.185,0.779-0.542,0.962c-1.495,0.765-2.983,1.44-4.465,2.052v8.632h3.684h0.451
	c-0.006,0.007-0.012,0.015-0.018,0.022c0.591,0.027,1.167,0.104,1.726,0.235v-67.374C424.85,353.005,424.13,353.1,423.387,353.1z
	 M430.891,431.941v-2.478c0-4.138-3.366-7.504-7.504-7.504h-0.964h-15.548c-0.537,0-0.582,0-1.26,0v17.485h12.118h5.655
	C427.524,439.445,430.891,436.079,430.891,431.941z M419.779,511.356v-1.233c0-1.684-1.37-3.054-3.054-3.054h-66.174
	c-1.684,0-3.054,1.37-3.054,3.054v1.233H419.779z M356.527,505.069h22.37v-20.975c-5.678-0.003-11.355-0.007-17.035-0.01v10.663
	c0,0.435-0.447,0.787-1,0.787h-0.001l0,0h-4.146c-0.422,4.154-0.751,6.94-0.85,7.751L356.527,505.069z M327.977,508.899
	c5.103-2.367,10.5-4.314,13.129-4.646c-0.108-2.463-1.131-10.487-2.468-20.179c-3.315-0.001-6.629-0.003-9.944-0.004
	c-0.89,11.35-1.876,19.703-2.059,21.215L327.977,508.899z M338.361,482.074c-1.097-7.885-2.367-16.657-3.509-24.363
	c-1.312-0.267-2.401-0.563-3.213-0.864c-0.496,0.202-1.004,0.395-1.535,0.568c-0.206,8.688-0.701,17.23-1.257,24.654
	C332.019,482.071,335.189,482.072,338.361,482.074z M361.032,455.208c0.073-1.873,0.143-4.414,0.207-7.225
	c-1.108-1.134-1.794-2.682-1.794-4.388v-2.149h-15.05c-5.241,0-9.505-4.264-9.505-9.504v-2.478c0-1.805,0.515-3.488,1.392-4.927
	c-1.161-0.092-2.12-0.17-2.777-0.226l1.374,30.227c0.016,0.354-0.155,0.689-0.452,0.883c-0.06,0.039-0.128,0.074-0.189,0.113
	C339.052,456.623,349.672,457.915,361.032,455.208z M405.614,419.96h0.77c3.189-1.716,5.101-3.878,7.131-6.484
	c-2.667,0.756-5.303,1.289-7.901,1.624V419.96z M417.703,419.96v-7.853c-0.285,0.106-0.572,0.222-0.857,0.323
	c-0.274,0.354-0.545,0.707-0.808,1.05c-1.885,2.461-3.558,4.637-5.961,6.48H417.703z M403.614,322.99h-6.317v116.455h6.317V322.99z
	 M386.382,505.069v-55.188h-5.485v55.188H386.382z M401.547,447.881c2.363,0,4.286-1.923,4.286-4.286v-1.911h-44.388v1.911
	c0,2.363,1.923,4.286,4.286,4.286H401.547z M361.861,482.084c5.68,0.003,11.357,0.007,17.035,0.01V449.88h-13.165
	c-0.898,0-1.751-0.193-2.524-0.533c-0.065,2.68-0.135,5.036-0.208,6.696c-0.02,0.441-0.326,0.817-0.754,0.926
	c-0.127,0.032-0.256,0.058-0.384,0.089V482.084z M388.382,482.101c9.778,0.006,19.552,0.013,29.321,0.021v-40.677h-9.87v2.149
	c0,3.466-2.82,6.286-6.286,6.286h-13.165V482.101z M395.297,421.96h-22.684c-4.138,0-7.504,3.366-7.504,7.504v2.478
	c0,4.138,3.366,7.504,7.504,7.504h22.684V421.96z M366.803,421.96h-22.407c-4.139,0-7.505,3.366-7.505,7.504v2.478
	c0,4.138,3.366,7.504,7.505,7.504h22.407c-2.242-1.74-3.693-4.453-3.693-7.504v-2.478C363.109,426.413,364.561,423.7,366.803,421.96
	z M359.276,457.621c-0.407,13.907-1.513,27.236-2.362,35.915h2.948v-36.028C359.666,457.547,359.471,457.583,359.276,457.621z
	 M417.703,505.168v-21.046c-9.769-0.008-19.543-0.015-29.321-0.021v20.969h28.344C417.06,505.069,417.386,505.106,417.703,505.168z
	 M405.614,353.1v59.974c5.809-0.779,11.503-2.517,17.054-5.28c-0.309-4.253-2.065-28.102-4.493-54.693h-5.361h-7.2V353.1z
	 M395.297,331.137v-9.147c0-0.553,0.447-1,1-1h8.317c0.553,0,1,0.447,1,1v9.11c3.719-0.442,6.613-3.61,6.613-7.446v-2.239
	c0-4.139-3.366-7.505-7.504-7.505h-9.012c-4.138,0-7.504,3.366-7.504,7.505v2.239C388.208,327.652,391.353,330.92,395.297,331.137z
	 M369.595,293.97h-6.546c-4.138,0-7.504,3.366-7.504,7.504v42.122c0,4.138,3.366,7.504,7.504,7.504h6.546
	c-2.242-1.74-3.693-4.453-3.693-7.504v-42.122C365.901,298.423,367.353,295.71,369.595,293.97z M344.541,199.059
	c0.46-0.291,11.313-7.049,15.976-0.04c3.545,5.33,2.546,11.376,1.816,15.792c-0.402,2.437-0.783,4.738-0.111,5.631
	c0.528,0.702,1.026,1.028,1.463,0.959c1.231-0.183,2.761-2.892,3.407-4.664c0.021-0.061,0.05-0.118,0.083-0.173
	c1.774-2.951,5.47-4.622,8.408-3.806c1.84,0.511,4.925,2.395,4.925,9.276c0,3.772-1.082,6.494-3.217,8.09
	c-2.218,1.658-4.991,1.637-6.665,1.42c1.772,10.816,5.167,15.268,6.769,16.822c7.679-0.02,16.91-2.081,25.244-16.591
	c9.32-16.227,7.198-41.281-4.284-50.582c-9.874-7.998-27.178-12.583-46.136-1.469c-1.28,0.751-3.405,0.531-6.099,0.252
	c-4.171-0.431-8.889-0.918-10.443,2.186c0.307,0.708,2.137,2.493,3.253,3.582c2.599,2.535,4.03,3.932,3.152,5.129
	c-2.605,3.547-3.564,6.747-2.851,9.512c0.714,2.772,2.944,4.434,4.031,5.1c0.368-3.247,0.765-5.423,0.83-5.766
	C344.146,199.446,344.308,199.207,344.541,199.059z M367.152,253.726c0.182-0.037,0.353-0.079,0.545-0.112
	c5.313-0.904,11.929-1.699,16.315-1.972l-0.252-1.848c-2.232,0.44-4.406,0.573-6.479,0.573c-0.19,0-0.357-0.067-0.508-0.159
	c-0.876,0.123-1.736,0.229-2.562,0.304c-0.437,0.04-1.142-0.235-1.203-0.924c-0.047-0.53,0.471-1.017,0.889-1.053
	c0.479-0.042,0.967-0.091,1.465-0.151c-2.183-2.151-5.373-7.058-6.932-17.953c-0.048-0.337,0.078-0.675,0.336-0.898
	c0.258-0.223,0.608-0.301,0.938-0.203c0.035,0.01,3.86,1.089,6.396-0.816c1.597-1.2,2.406-3.38,2.406-6.482
	c0-4.119-1.229-6.729-3.46-7.349c-2.057-0.57-4.781,0.696-6.112,2.833c-0.414,1.106-2.207,5.453-4.956,5.862
	c-0.842,0.126-2.107-0.075-3.355-1.735c-1.187-1.577-0.779-4.041-0.265-7.159c0.713-4.314,1.601-9.684-1.509-14.358
	c-3.177-4.779-11.064-0.636-12.869,0.402c-0.685,4.054-5.367,34.823,8.343,44.268c0.093,0.071,4.609,3.432,13.698,3.862
	c0.388,0.018,1.245,0.163,1.156,1.114c-0.066,0.704-1.039,0.916-1.47,0.894c-0.239-0.012-0.461-0.034-0.693-0.05L367.152,253.726z
	 M359.453,268.776c10.24,1.822,28.004-5.783,32.324-7.731c0.003-0.032,0.004-0.063,0.011-0.094
	c-0.245-0.519-0.464-1.018-0.689-1.534c-0.474-1.087-1.012-2.319-1.991-4.184l-0.053-0.1c-0.493-0.943-0.86-1.689-3.856-1.554
	c-4.242,0.192-11.461,1.036-17.165,2.007c-4.818,0.82-5.645,3.278-5.678,3.382L359.453,268.776z M312.881,314.078
	c0.221,3.144,2.01,19.379,15.482,24.063c2.281-1.398,13.833-8.63,16.356-13.172c0.068-0.122,2.644-4.574,2.644-4.574
	c0.268-0.482,0.877-0.658,1.359-0.389c0.483,0.268,0.657,0.877,0.389,1.359l-2.524,4.545c-0.104,6.572-1.071,47.214-9.082,52.901
	c0.842,1.594,4.028,5.609,8.964,10.359c0.367,0.353,1.056,1.081,0.32,1.821c-0.419,0.421-1.225,0.066-1.612-0.308
	c-3.57-3.447-6.339-6.614-8.023-8.923c-3.502,0.319-30.656,2.957-39.058,8.773c-8.27,5.725-9.782,15.134-4.625,28.765
	c4.763,12.586,7.891,33.322,8.501,37.582c4.002,0.405,22.674,1.992,30.885-2.838l-1.373-30.194l-18.623-3.211
	c-0.544-0.094-0.909-0.611-0.815-1.155s0.61-0.905,1.155-0.815l20.674,3.564c0.124,0.021,0.236,0.07,0.338,0.131
	c0.883,0.073,2.104,0.172,3.574,0.285c1.712-1.661,4.042-2.689,6.61-2.689h28.218h22.684v-4.546
	c-12.391-0.757-23.567-5.52-32.539-11.031c-0.321-0.197-1.08-0.676-0.827-1.463c0.293-0.912,1.302-0.614,1.586-0.438
	c3.063,1.906,6.316,3.692,9.739,5.236c7.482,3.374,14.837,5.233,22.041,5.686V353.1h-19.892h-12.356
	c-5.24,0-9.504-4.264-9.504-9.504v-42.122c0-5.24,4.264-9.504,9.504-9.504h12.356h35.948c-1.527-10.134-3.066-17.469-4.514-19.762
	c-5.113-8.096-10.485-9.699-12.817-10.001l-0.412,0.197c-0.838,0.4-18.257,8.647-30.689,8.647c-1.748,0-3.394-0.166-4.886-0.537
	c-0.193,0.026-8.099,1.199-13.877,11.92C340.424,289.366,319.409,309.426,312.881,314.078z M337.1,334.732h7.213
	c0.098-2.157,0.173-4.26,0.223-6.26C342.592,330.558,339.792,332.786,337.1,334.732z M307.023,319.682
	c-1.753-0.123-40.252-1.946-40.641-1.965c-0.073-0.004-0.146-0.016-0.216-0.034c-0.104-0.028-10.415-2.757-14.875,3.009
	c-2.755,3.563-2.407,4.704-2.358,4.822c0.067,0.162,0.262,0.196,0.3,0.201l17.38,0.774c0.091,0.004,0.182,0.021,0.269,0.049
	c0.326,0.108,32.618,10.708,44.091,10.708h0.118c4.021-0.026,7.053-0.677,9.314-1.489c-5.943-5.285-8.196-13.046-9.045-17.842
	c-1.742,1.005-3.355,1.771-4.239,1.771C307.087,319.686,307.055,319.685,307.023,319.682z M286.253,334.436
	c-9.759-2.66-18.532-5.516-19.867-5.954l-7.174-0.32c1.301,1.595,1.933,3.702,1.885,6.275L286.253,334.436L286.253,334.436z
	 M266.583,315.724c1.323,0.063,10.747,0.509,20.187,0.962l-12.6-56.659c-0.908-5.479-6.884-7.501-10.439-7.501h-78.605
	c-3.03,0-6.638,0.901-6.699,5.173l14.217,61.47h57.335C255.137,313.02,265.331,315.401,266.583,315.724z M187.004,324.971h59.904
	c0.079-1.03,0.615-2.295,1.595-3.803h-56.655c-0.465,0-0.87-0.321-0.974-0.774l-14.423-62.359c-0.017-0.074-0.026-0.149-0.026-0.225
	c0-4.561,3.252-7.284,8.7-7.284h78.605c4.212,0,11.303,2.476,12.402,9.121l12.708,57.138c1.506,0.072,2.993,0.144,4.436,0.213
	l-13.836-60.784c-0.961-5.801-5.978-8.372-10.529-8.372H178.78c-4.104,0-7.449,3.597-7.503,8.04L187.004,324.971z M190.365,332.924
	c2.357,1.897,5.251,1.525,5.279,1.521c0.045-0.007,0.091-0.01,0.137-0.01h63.318c0.05-2.374-0.575-4.219-1.864-5.479
	c-0.396-0.387-0.834-0.69-1.285-0.941l-6.858-0.306c-0.4-0.028-1.046-0.217-1.537-0.718l-60.123,0.001
	C187.812,329.668,188.796,331.66,190.365,332.924z M119.268,347.683l73.881,0.87V336.73l-73.99-0.135L119.268,347.683z
	 M173.538,427.183h-59.767c-0.246,0-0.464-0.099-0.639-0.247v26.008h60.082c0.174,0,0.329,0.056,0.471,0.134L173.538,427.183z
	 M113.132,480.706h60.711l-0.147-25.902c-0.145,0.082-0.303,0.141-0.481,0.141h-60.082L113.132,480.706L113.132,480.706z
	 M177.129,398.847v-6.862h-66.068c-0.077,2.057,0,6.862,0,6.862H177.129z M138.614,389.984V349.91l-5.128-0.06v40.134H138.614z
	 M124.148,349.771v40.214h7.337v-40.158l-7.343-0.086C124.143,349.751,124.148,349.76,124.148,349.771z M113.132,400.847v24.583
	c0.174-0.148,0.392-0.247,0.639-0.247h59.756l-0.139-24.336H113.132z M174,508.266l-0.146-25.56h-60.722v25.463
	C139.89,508.241,168.494,508.304,174,508.266z M188.158,482.091V350.494l-47.544-0.56v40.05h37.515c0.552,0,1,0.447,1,1v8.862
	c0,0.553-0.448,1-1,1h-2.741l0.462,81.25C179.952,482.095,184.056,482.094,188.158,482.091z M190.158,508.242
	c1.829,0.008,3.842,0.016,5.842,0.022v-157.7h-1.852c-0.004,0-0.008,0-0.012,0l-3.979-0.047v157.725L190.158,508.242
	L190.158,508.242z M207.406,508.266V350.564H198v157.705C202.042,508.279,205.749,508.281,207.406,508.266z M308.852,482.065
	c-1.054-7.525-2.238-15.684-3.304-22.867c-2.591-0.178-4.327-0.382-4.58-0.413c-0.452-0.056-0.811-0.408-0.871-0.86
	c-0.032-0.239-3.279-24.122-8.498-37.918c-5.53-14.614-3.778-24.792,5.356-31.116c8.321-5.761,32.672-8.42,38.945-9.021
	c-0.41-0.72-0.615-1.259-0.583-1.563c0.043-0.42,0.295-0.766,0.674-0.923c3.526-1.469,5.852-13.439,7.19-26.819h-56.934
	c0,0-1-0.039-1.04-0.931c-0.048-1.098,1.01-1.069,1.01-1.069h57.156c0.362-3.939,0.641-7.955,0.842-11.832h-9.975
	c-2.8,1.894-5.014,3.227-5.241,3.363c-0.249,0.147-0.548,0.184-0.821,0.093c-2.264-0.732-4.223-1.761-5.934-2.979
	c-2.563,1.083-6.173,2.005-11.14,2.037h-0.129c-3.767,0-9.556-1.06-15.731-2.514H195.148v11.832h65.139c0,0,1.01-0.03,1.011,1.065
	c0.001,0.837-1.04,0.935-1.04,0.935h-50.852v131.518C242.226,482.068,276.004,482.06,308.852,482.065z M328.813,516.893
	l-4.137-11.14c-0.057-0.15-0.075-0.313-0.056-0.473c0.03-0.242,2.859-23.134,3.471-47.293c-4.559,1.144-9.951,1.487-14.727,1.487
	c-2.085,0-4.049-0.064-5.777-0.154c0.707,4.783,1.947,13.244,3.134,21.685c3.705,26.347,3.391,26.546,2.631,27.028
	c-0.261,0.166-0.598,0.197-0.891,0.1h-0.004c-1.873,0-15.097,4.76-21.167,9.079L328.813,516.893z M329.921,514.134l17.244-0.147
	c0.018-0.213,0.046-0.423,0.083-0.63h-0.751c-0.553,0-1-0.447-1-1v-2.233c0-2.787,2.267-5.054,5.054-5.054h3.841l-0.488-1.314
	c-0.056-0.151-0.075-0.313-0.055-0.473c0.03-0.235,2.704-21.895,3.413-45.308c-3.608,0.568-7.196,0.807-10.527,0.807
	c-3.699,0-7.071-0.285-9.809-0.704c0.721,4.889,1.896,12.92,3.023,20.93c3.705,26.347,3.391,26.547,2.631,27.028
	c-0.259,0.165-0.596,0.199-0.89,0.1h-0.004c-1.222,0-7.271,2.025-13.016,4.632L329.921,514.134z M358.59,513.356h-9.287
	c-0.104,0.381-0.164,0.779-0.164,1.193c0,2.65,2.156,4.807,4.807,4.807s4.808-2.156,4.808-4.807
	C358.753,514.136,358.69,513.739,358.59,513.356z M388.234,513.356h-9.286c-0.102,0.382-0.164,0.779-0.164,1.193
	c0,2.65,2.156,4.807,4.808,4.807c2.65,0,4.807-2.156,4.807-4.807C388.398,514.136,388.336,513.738,388.234,513.356z
	 M417.882,513.356h-9.29c-0.104,0.381-0.161,0.779-0.161,1.193c0,2.65,2.156,4.807,4.807,4.807s4.807-2.156,4.807-4.807
	C418.044,514.136,417.986,513.737,417.882,513.356z M421.406,508.237h4.139v-67.049c-0.695,0.162-1.415,0.257-2.158,0.257h-3.684
	v64.615C420.455,506.613,421.052,507.36,421.406,508.237z M436.95,508.237V350.564h-7.123c-0.678,0.627-1.445,1.154-2.282,1.564
	v68.803c3.159,1.546,5.346,4.785,5.346,8.533v2.478c0,3.748-2.186,6.986-5.346,8.533v67.763L436.95,508.237L436.95,508.237z
	 M492.912,405.315c1.047,5.888,1.146,12.526-0.628,19.546h10.267c12.238-14.885,7.727-29.65,6.383-33.153
	C497.71,395.177,493.819,403.052,492.912,405.315z M469.342,424.86h20.88c5.452-20.558-6.042-37.824-8.926-41.724
	C464.045,398.952,468.318,420.687,469.342,424.86z M456.518,424.86h10.772c-0.683-3.013-2.053-10.958-0.247-20.157
	c-0.752-1.996-4.717-10.834-17.053-14.628C448.6,393.672,443.792,409.173,456.518,424.86z M460.877,482.165
	c13.275,0.014,26.533,0.03,39.778,0.048l6.111-55.353h-52.563L460.877,482.165z M277.099,348.564h-8.228c0,0-0.888,0.144-0.861,0.98
	c0.03,0.951,0.951,1.02,0.951,1.02h8.257c0,0,0.832-0.218,0.81-1.014C278.003,348.653,277.099,348.564,277.099,348.564z
	 M143.96,415.836c1.68,0,3.042-1.362,3.042-3.042s-1.362-3.042-3.042-3.042c-1.68,0-3.042,1.362-3.042,3.042
	S142.28,415.836,143.96,415.836z M143.96,442.516c1.68,0,3.042-1.362,3.042-3.042s-1.362-3.042-3.042-3.042
	c-1.68,0-3.042,1.362-3.042,3.042S142.28,442.516,143.96,442.516z M143.96,464.749c-1.68,0-3.042,1.362-3.042,3.042
	s1.362,3.042,3.042,3.042c1.68,0,3.042-1.362,3.042-3.042C147.003,466.111,145.641,464.749,143.96,464.749z M143.96,492.13
	c-1.68,0-3.042,1.362-3.042,3.042s1.362,3.042,3.042,3.042c1.68,0,3.042-1.362,3.042-3.042
	C147.003,493.493,145.641,492.13,143.96,492.13z M227.069,261c0-0.552-0.448-1-1-1h-33.148c-0.552,0-1,0.448-1,1s0.448,1,1,1h33.148
	C226.622,262,227.069,261.552,227.069,261z M246.495,266.525c0-0.552-0.448-1-1-1h-51.148c-0.552,0-1,0.448-1,1s0.448,1,1,1h51.148
	C246.047,267.525,246.495,267.077,246.495,266.525z M247.921,272.049c0-0.552-0.448-1-1-1h-51.148c-0.552,0-1,0.448-1,1s0.448,1,1,1
	h51.148C247.473,273.049,247.921,272.602,247.921,272.049z M248.347,276.574h-51.148c-0.552,0-1,0.448-1,1s0.448,1,1,1h51.148
	c0.552,0,1-0.448,1-1S248.899,276.574,248.347,276.574z M245.772,282.099h-47.149c-0.552,0-1,0.448-1,1s0.448,1,1,1h47.149
	c0.552,0,1-0.448,1-1S246.325,282.099,245.772,282.099z M233.198,287.624h-33.149c-0.552,0-1,0.448-1,1s0.448,1,1,1h33.149
	c0.552,0,1-0.448,1-1S233.75,287.624,233.198,287.624z"></path>
</svg>